# xmcd CD database generated by RipIT
#
# Track frame offsets:
# 150
# 14738
# 35554
# 55021
# 77416
# 99781
# 123325
# 138445
# 156310
# 172039
# 194914
# 219756
# 242880
#
# Disc length: 3518 seconds
#
# Revision: 0
# Processed by: cddbd v1.5.2PL0 Copyright (c) Steve Scherf et al.
# Submitted via: RipIT 4.0.0-beta20140508 www.suwald.com/ripit/ripit.html on 2019-08-01 at 21:56
#
DISCID=b00dbc0d
DTITLE=Altai-Khangai - nadaam
DYEAR=2005
DGENRE=Ethnic
TTITLE0=Mongol nadaam
TTITLE1=Guilgee
TTITLE2=Ecjee dursakhui
TTITLE3=Khetsuum loo
TTITLE4=Khaanii magtaal
TTITLE5=Khöömii magtaal
TTITLE6=Baigaliin chimee
TTITLE7=Joroo ugsiin kholboo
TTITLE8=Govolog khöörkhii, Möngön bögj
TTITLE9=Meduut goyoi
TTITLE10=Ekh ornii magtaal
TTITLE11=Chilguun - Bodol
TTITLE12=Khavar
EXTD=
EXTT0=
EXTT1=
EXTT2=
EXTT3=
EXTT4=
EXTT5=
EXTT6=
EXTT7=
EXTT8=
EXTT9=
EXTT10=
EXTT11=
EXTT12=
PLAYORDER=
